<svg id="Layer_1" data-name="Layer 1" xmlns="http://www.w3.org/2000/svg" viewBox="0 0 495.75 294.73"><defs><style>.cls-1{opacity:0.1;}.cls-2{fill:#fff;}</style></defs><title>bg</title><g class="cls-1"><path class="cls-2" d="M375.6,148.93a4.07,4.07,0,1,1-4.07-4.07A4.07,4.07,0,0,1,375.6,148.93Z" transform="translate(-2.3 16.11)"/><path class="cls-2" d="M397.55,66v7.24h7.25V79h-7.25v7.24h-5.77V79h-7.24V73.24h7.24V66h5.77m.62-.62h-7v7.24h-7.24v7h7.24v7.24h7V79.63h7.24v-7h-7.24V65.38Z" transform="translate(-2.3 16.11)"/><polygon class="cls-2" points="21.37 228.89 14.17 228.89 14.17 221.69 7.2 221.69 7.2 228.89 0 228.89 0 235.85 7.2 235.85 7.2 243.06 14.17 243.06 14.17 235.85 21.37 235.85 21.37 228.89"/><path class="cls-2" d="M449.72,16a2,2,0,1,1-2-2A2,2,0,0,1,449.72,16Z" transform="translate(-2.3 16.11)"/><path class="cls-2" d="M460.27,32.92V49.86h16.94V63.37H460.27V80.3h-13.5V63.37H429.83V49.86h16.94V32.92h13.5m1.45-1.44h-16.4V48.42H428.38V64.81h16.94V81.75h16.4V64.81h16.94V48.42H461.72V31.48Z" transform="translate(-2.3 16.11)"/><path class="cls-2" d="M73.14,200.53v27.09h27.09v21.6H73.14v27.09H51.54V249.22H24.45v-21.6H51.54V200.53h21.6m2.31-2.31H49.23v27.09H22.14v26.22H49.23v27.09H75.45V251.53h27.09V225.31H75.45V198.22Z" transform="translate(-2.3 16.11)"/><polygon class="cls-2" points="159.67 274.4 153.08 274.4 153.08 267.81 146.7 267.81 146.7 274.4 140.1 274.4 140.1 280.78 146.7 280.78 146.7 287.37 153.08 287.37 153.08 280.78 159.67 280.78 159.67 274.4"/><circle class="cls-2" cx="254.16" cy="115.55" r="1.51"/><polygon class="cls-2" points="354.96 59.66 343.14 59.66 343.14 47.85 331.71 47.85 331.71 59.66 319.89 59.66 319.89 71.1 331.71 71.1 331.71 82.92 343.14 82.92 343.14 71.1 354.96 71.1 354.96 59.66"/><path class="cls-2" d="M132.46,205v12.72h12.72v10.13H132.46v12.72H122.33V227.89H109.61V217.76h12.72V205h10.13m1.09-1.09H121.24v12.72H108.52V229h12.72V241.7h12.31V229h12.72V216.67H133.55V204Z" transform="translate(-2.3 16.11)"/><polygon class="cls-2" points="366.92 96.48 358.3 96.48 358.3 87.87 349.96 87.87 349.96 96.48 341.35 96.48 341.35 104.82 349.96 104.82 349.96 113.44 358.3 113.44 358.3 104.82 366.92 104.82 366.92 96.48"/><path class="cls-2" d="M70.09,166.38v9.67h9.68v7.71H70.09v9.67H62.38v-9.67H52.71v-7.71h9.67v-9.67h7.71m.83-.83H61.56v9.67H51.89v9.36h9.67v9.68h9.36v-9.68h9.67v-9.36H70.92v-9.67Z" transform="translate(-2.3 16.11)"/><path class="cls-2" d="M310.69,49.76V68H328.9V82.5H310.69v18.21H296.17V82.5H278V68h18.22V49.76h14.52m1.55-1.55H294.61V66.42H276.4V84.05h18.21v18.22h17.63V84.05h18.22V66.42H312.24V48.21Z" transform="translate(-2.3 16.11)"/><polygon class="cls-2" points="47.33 184.64 31.41 184.64 31.41 168.72 16.01 168.72 16.01 184.64 0.09 184.64 0.09 200.04 16.01 200.04 16.01 215.96 31.41 215.96 31.41 200.04 47.33 200.04 47.33 184.64"/><path class="cls-2" d="M404.92-13.88V12.21H431V33h-26.1V59.1h-20.8V33H358V12.21h26.09V-13.88h20.8m2.23-2.23H381.9V10H355.8V35.24h26.1V61.33h25.25V35.24h26.09V10H407.15V-16.11Z" transform="translate(-2.3 16.11)"/><polygon class="cls-2" points="430.84 120.47 419.8 120.47 419.8 109.44 409.13 109.44 409.13 120.47 398.1 120.47 398.1 131.15 409.13 131.15 409.13 142.18 419.8 142.18 419.8 131.15 430.84 131.15 430.84 120.47"/><circle class="cls-2" cx="99.78" cy="182.73" r="2.42" transform="translate(-109.58 220.59) rotate(-67.36)"/><polygon class="cls-2" points="495.75 104.61 476.63 104.61 476.63 85.49 458.14 85.49 458.14 104.61 439.02 104.61 439.02 123.11 458.14 123.11 458.14 142.22 476.63 142.22 476.63 123.11 495.75 123.11 495.75 104.61"/></g></svg>